HIERARCHY
ROOT hip
{
	OFFSET 0.000000 0.000000 0.000000 
	CHANNELS 6 Xposition Yposition Zposition Xrotation Zrotation Yrotation
	JOINT abdomen
	{
		OFFSET 0.000000 3.402643 0.000000 
		CHANNELS 3 Xrotation Zrotation Yrotation
		JOINT chest
		{
			OFFSET 0.000000 8.438565 -0.680529 
			CHANNELS 3 Xrotation Zrotation Yrotation
			JOINT neck
			{
				OFFSET 0.000000 10.207942 -0.272212 
				CHANNELS 3 Xrotation Zrotation Yrotation
				JOINT head
				{
					OFFSET 0.000000 3.130431 0.000000 
					CHANNELS 3 Xrotation Zrotation Yrotation
					End Site
					{
						OFFSET 0.000000 3.130435 0.000000 
					}
				}
			}
			JOINT lCollar
			{
				OFFSET 3.470700 6.669187 -0.816635 
				CHANNELS 3 Yrotation Zrotation Xrotation
				JOINT lShldr
				{
					OFFSET 3.198488 0.000000 0.000000 
					CHANNELS 3 Zrotation Yrotation Xrotation
					JOINT lForeArm
					{
						OFFSET 10.139888 0.000000 0.000000 
						CHANNELS 3 Yrotation Zrotation Xrotation
						JOINT lHand
						{
							OFFSET 8.370511 0.000000 0.000000 
							CHANNELS 3 Zrotation Yrotation Xrotation
							End Site
							{
								OFFSET 4.083176 0.000000 0.000000 
							}
						}
					}
				}
			}
			JOINT rCollar
			{
				OFFSET -3.470700 6.669187 -0.816635 
				CHANNELS 3 Yrotation Zrotation Xrotation
				JOINT rShldr
				{
					OFFSET -3.198488 0.000000 0.000000 
					CHANNELS 3 Zrotation Yrotation Xrotation
					JOINT rForeArm
					{
						OFFSET -10.139888 0.000000 0.000000 
						CHANNELS 3 Yrotation Zrotation Xrotation
						JOINT rHand
						{
							OFFSET -8.370511 0.000000 0.000000 
							CHANNELS 3 Zrotation Yrotation Xrotation
							End Site
							{
								OFFSET -4.083176 0.000000 0.000000 
							}
						}
					}
				}
			}
		}
	}
	JOINT lThigh
	{
		OFFSET 5.308129 -1.633274 1.361059 
		CHANNELS 3 Xrotation Zrotation Yrotation
		JOINT lShin
		{
			OFFSET -2.041588 -20.007561 0.000000 
			CHANNELS 3 Xrotation Zrotation Yrotation
			JOINT lFoot
			{
				OFFSET 0.000000 -19.190928 -1.224953 
				CHANNELS 3 Xrotation Yrotation Zrotation
				End Site
				{
					OFFSET 0.000000 -2.449906 4.627600 
				}
			}
		}
	}
	JOINT rThigh
	{
		OFFSET -5.308129 -1.633274 1.361059 
		CHANNELS 3 Xrotation Zrotation Yrotation
		JOINT rShin
		{
			OFFSET 2.041588 -20.007561 0.000000 
			CHANNELS 3 Xrotation Zrotation Yrotation
			JOINT rFoot
			{
				OFFSET 0.000000 -19.190928 -1.224953 
				CHANNELS 3 Xrotation Yrotation Zrotation
				End Site
				{
					OFFSET 0.000000 -2.449906 4.627600 
				}
			}
		}
	}
}
MOTION
Frames: 14
Frame Time: 0.011111
-38.190231 52.461510 1.125218 9.555202 -13.868974 138.456161 27.329031 -11.806029 -7.401600 -32.325584 -1.629346 -0.065091 1.194497 -11.016960 -19.244286 -9.783953 15.561056 -40.792027 -10.275489 -5.709454 -1.550532 -70.616898 -7.686413 30.100033 -87.550842 3.430758 33.145046 8.524705 12.647240 -54.778702 5.831508 6.350754 -0.460990 29.199823 16.077805 -59.937649 84.618828 -3.329546 26.072622 -8.534408 -12.637552 73.939308 11.339890 -7.543937 -2.445022 21.748438 -5.735291 -3.781738 -5.978367 -10.690673 -4.727897 -38.864075 -38.254925 -20.232325 40.426144 4.618833 6.113940 -30.013336 -31.128477 -10.840878 
-36.910049 52.374401 1.054998 9.840249 -13.643604 139.075027 27.304773 -12.059175 -8.914856 -32.313660 -0.857299 -0.476020 1.209451 -10.996314 -19.148722 -9.122013 15.445650 -40.465099 -10.275489 -5.709454 -1.550532 -70.106010 -7.165903 30.352428 -87.695793 3.611694 33.295815 8.524705 12.647240 -54.085339 5.831508 6.350754 -0.460990 29.317648 14.636704 -61.079559 84.598534 -3.350922 26.050764 -8.534408 -12.637552 75.824074 11.912576 -6.444678 -3.443192 22.562286 -5.703014 -3.888051 -5.071715 -10.591599 -4.562625 -37.479359 -37.985218 -22.067499 41.265842 4.550486 6.221177 -29.916563 -30.735138 -10.668579 
-35.575520 52.357861 1.004020 9.734659 -13.047568 139.071182 26.907902 -11.911358 -9.815237 -32.371418 -0.211012 -0.790377 1.246763 -11.000071 -19.001789 -8.380721 15.335052 -40.025215 -10.275489 -5.709454 -1.550532 -69.525948 -6.484412 30.773588 -87.920746 3.878076 33.532879 8.524705 12.647240 -53.724007 5.831508 6.350754 -0.460990 29.442678 13.372149 -62.142162 84.536987 -3.414602 25.985224 -8.534408 -12.637552 77.611183 12.090719 -4.850622 -4.165266 23.497885 -5.653843 -4.012068 -3.881124 -10.131739 -4.280965 -35.848286 -36.539314 -23.616575 42.302345 4.465885 6.348377 -34.445053 -28.934921 -12.965295 
-34.289612 52.373058 0.950680 9.683278 -12.352957 138.032486 26.534689 -11.833276 -9.665252 -32.693802 0.049712 -0.797400 1.471123 -11.166264 -18.953783 -7.621377 15.399271 -39.765713 -10.275489 -5.709454 -1.550532 -68.718079 -5.861762 31.893675 -88.103188 4.082454 33.703739 8.524705 12.647240 -53.128307 5.831508 6.350754 -0.460990 29.495399 12.034962 -63.662971 84.366287 -3.579489 25.800308 -8.534408 -12.637552 78.900246 12.230491 -3.533800 -4.521833 24.636244 -5.629699 -4.138589 -2.379249 -8.726183 -3.860167 -34.432899 -34.577988 -24.160206 43.279617 4.377965 6.458435 -35.219215 -27.546850 -12.990489 
-33.027660 52.417618 0.875057 9.836511 -12.436385 136.752930 25.632412 -12.346110 -9.992599 -32.869595 0.158997 -0.843440 1.520397 -11.266132 -18.782698 -6.676357 15.358793 -39.274612 -10.275489 -5.709454 -1.550532 -67.939682 -5.503575 32.887737 -88.281868 4.274973 33.857071 8.524705 12.647240 -52.102917 5.831508 6.350754 -0.460990 30.217405 10.971644 -65.087646 84.693039 -3.251319 26.159575 -8.534408 -12.637552 79.954941 11.914117 -3.105581 -4.890493 26.130560 -5.547317 -4.353276 -0.143200 -6.707261 -3.359543 -33.749989 -33.398006 -23.833105 44.166100 4.316332 6.560047 -33.269112 -26.579327 -11.450516 
-31.762676 52.538139 0.841972 9.686372 -12.171265 135.190384 24.721689 -12.270241 -10.465888 -33.074265 0.086022 -0.981666 1.322613 -10.836667 -18.342169 -5.851381 14.928057 -38.211124 -10.275489 -5.709454 -1.550532 -67.131424 -5.309749 33.293957 -88.569542 4.567790 34.097343 8.524705 12.647240 -51.761120 5.831508 6.350754 -0.460990 31.014271 9.972340 -65.545921 84.768410 -3.173331 26.246355 -8.534408 -12.637552 81.458847 10.930718 -2.303887 -4.427818 28.380730 -5.429507 -4.655638 2.806316 -4.458724 -2.943482 -32.801708 -31.559961 -23.224512 44.846649 4.250787 6.632119 -32.432449 -24.985369 -10.451640 
-30.433552 52.680611 0.843998 9.272194 -10.485447 133.951569 24.739841 -10.810654 -10.585885 -33.444469 -0.200729 -1.195436 1.344644 -10.241076 -17.902948 -5.517902 14.433784 -37.148815 -10.275489 -5.709454 -1.550532 -66.285973 -5.160012 34.211742 -88.814026 4.801119 34.301151 8.524705 12.647240 -51.360729 5.831508 6.350754 -0.460990 31.603979 8.804741 -66.065613 84.726669 -3.215847 26.202816 -8.534408 -12.637552 82.591660 10.078286 -0.107691 -2.876290 31.481472 -5.245277 -5.051511 6.353042 -2.521504 -2.599560 -29.882364 -28.572927 -23.608702 45.428082 4.199027 6.690448 -32.003922 -23.244677 -9.598064 
-29.338041 52.748806 0.781543 8.515852 -9.516414 131.567825 23.952633 -9.394823 -9.545812 -33.787067 -0.990223 -1.077260 1.348597 -10.002562 -17.478701 -5.282131 14.323700 -36.218014 -10.275489 -5.709454 -1.550532 -65.583618 -5.254650 35.580032 -89.108269 5.071044 34.516071 8.524705 12.647240 -51.175182 5.831508 6.350754 -0.460990 31.730068 7.863389 -66.981995 84.591934 -3.357909 26.040602 -8.534408 -12.637552 82.786964 7.978991 1.229907 -1.162910 35.560375 -4.991590 -5.555647 9.086267 0.903053 -2.728345 -28.795364 -25.929993 -23.182503 45.861649 4.160039 6.731709 -29.964020 -21.788694 -8.017356 
-28.302624 52.735981 0.735629 7.780807 -8.934840 128.070984 22.898148 -8.526710 -8.159242 -33.876316 -1.268680 -0.832511 1.159465 -9.970317 -16.905529 -5.175498 14.376993 -35.098782 -10.275489 -5.709454 -1.550532 -64.815079 -5.784630 37.342487 -89.442802 5.359948 34.752693 8.524705 12.647240 -50.667374 5.831508 6.350754 -0.460990 31.202469 7.390989 -67.662659 84.345901 -3.600581 25.778389 -8.534408 -12.637552 82.425644 5.390179 2.148505 1.403646 40.354065 -4.654020 -6.120043 10.981243 4.581253 -3.213924 -28.699293 -23.375519 -22.002176 46.244873 4.133353 6.782651 -27.714111 -20.326939 -6.464100 
-27.243914 52.671154 0.837246 6.900749 -7.882950 123.468445 22.423120 -7.888584 -6.199821 -34.218430 -1.031589 -0.449994 1.123697 -9.873177 -16.329306 -5.266243 14.519791 -33.951298 -10.275489 -5.709454 -1.550532 -64.365166 -6.509395 39.340321 -89.713974 5.579778 34.951923 8.524705 12.647240 -50.823620 5.831508 6.350754 -0.460990 30.500807 7.241457 -68.554497 84.083763 -3.842774 25.514336 -8.534408 -12.637552 81.536964 2.801965 4.081228 5.935537 45.672356 -4.208025 -6.724456 12.696770 7.064688 -3.727609 -28.375856 -19.712496 -20.271582 46.579674 4.101391 6.817530 -26.088291 -19.050877 -5.318912 
-26.220650 52.685673 0.757573 6.099148 -5.776055 124.505753 23.558081 -4.557395 -7.952055 -34.470661 -1.378780 -1.287322 1.173131 -9.956779 -15.794220 -5.125953 14.808828 -32.878391 -10.275489 -5.709454 -1.550532 -64.206253 -7.245168 41.534794 -89.977158 5.789093 35.122646 8.524705 12.647240 -50.862682 5.831508 6.350754 -0.460990 29.281954 7.229483 -69.256485 83.724510 -4.156255 25.170660 -8.534408 -12.637552 80.511581 0.214075 6.994740 5.963524 50.756500 -3.720611 -7.269421 14.373578 8.291457 -4.069009 -24.030291 -18.139238 -24.093039 46.619225 4.101463 6.811243 -25.604691 -17.078220 -4.474013 
-25.348293 52.521942 0.744744 4.614136 -4.444991 121.977791 23.507654 -2.310734 -7.659499 -34.900219 -1.632171 -1.470789 1.297235 -9.065166 -15.224216 -4.820137 14.743014 -31.518700 -10.275489 -5.709454 -1.550532 -63.759754 -7.732851 43.530071 -90.265991 6.003467 35.315269 8.524705 12.647240 -50.569710 5.831508 6.350754 -0.460990 28.134167 7.155654 -68.723824 83.240891 -4.543910 24.754038 -8.534408 -12.637552 80.140488 -3.163424 10.044550 8.923509 55.532055 -3.244894 -7.739671 11.933922 10.128902 -4.368667 -22.313168 -15.183444 -24.947128 46.550598 4.101331 6.805341 -23.963345 -15.180822 -3.267553 
-24.444206 52.612747 0.726514 3.227093 -3.590415 119.423767 23.397079 -0.537873 -7.038879 -34.852077 -1.867603 -1.518614 0.619421 -8.491713 -14.841819 -4.151856 14.900332 -30.693941 -10.275489 -5.709454 -1.550532 -63.098259 -8.947000 46.619324 -90.503998 6.177096 35.457932 8.524705 12.647240 -50.100964 5.831508 6.350754 -0.460990 26.940371 6.866721 -68.874779 82.711784 -4.928306 24.332693 -8.534408 -12.637552 80.160019 -6.365906 12.827524 11.249499 59.153851 -2.845402 -8.057680 6.746706 9.227507 -3.769796 -20.406782 -12.475171 -25.502840 45.960041 4.150155 6.745801 -22.337948 -12.908646 -2.022914 
-23.613373 52.607014 0.690390 1.727632 -2.972683 116.371872 23.180044 1.287962 -6.619558 -35.087643 -2.207777 -1.598026 0.407116 -7.627418 -14.245767 -3.661957 15.132125 -29.325235 -10.275489 -5.709454 -1.550532 -62.414555 -9.632447 49.399452 -90.772293 6.364386 35.622944 8.524705 12.647240 -49.388073 5.831508 6.350754 -0.460990 25.889942 7.135323 -68.694870 82.286980 -5.218422 24.020374 -8.534408 -12.637552 79.857285 -9.705339 15.747182 13.439418 61.890488 -2.514995 -8.294029 3.345580 6.354548 -3.265483 -18.913385 -9.771797 -25.398277 45.368881 4.208765 6.679574 -20.468948 -10.371000 -0.752395 
